PathFileType	4	(X/Y/Z)	Patient4_TMGait_0pt5_01_left_24.trc.trc
DataRate	CameraRate	NumFrames	NumMarkers	Units	OrigDataRate	OrigDataStartFrame	OrigNumFrames
75.675675675676	75.675675675676	7	33	mm	75.675675675676	36	       141
Frame#	Time	L.ASIS			Sacral			L.Shoulder			Chest			R.Shoulder			Neck			R.ASIS			R.Thigh.Superior			R.Thigh.Lateral			R.Thigh.Inferior			R.Patella			L.Thigh.Superior			L.Thigh.Lateral			L.Thigh.Inferior			L.Patella			L.Shank.Superior			L.Shank.Lateral			L.Shank.Inferior			R.Shank.Superior			R.Shank.Lateral			R.Shank.Inferior			R.Heel			R.Midfoot.Superior			R.Midfoot.Lateral			R.Toe			L.Heel			L.Midfoot.Lateral			L.Midfoot.Superior			L.Toe			L.Elbow			L.Wrist			R.Elbow			R.Wrist			
		X1	Y1	Z1	X2	Y2	Z2	X3	Y3	Z3	X4	Y4	Z4	X5	Y5	Z5	X6	Y6	Z6	X7	Y7	Z7	X8	Y8	Z8	X9	Y9	Z9	X10	Y10	Z10	X11	Y11	Z11	X12	Y12	Z12	X13	Y13	Z13	X14	Y14	Z14	X15	Y15	Z15	X16	Y16	Z16	X17	Y17	Z17	X18	Y18	Z18	X19	Y19	Z19	X20	Y20	Z20	X21	Y21	Z21	X22	Y22	Z22	X23	Y23	Z23	X24	Y24	Z24	X25	Y25	Z25	X26	Y26	Z26	X27	Y27	Z27	X28	Y28	Z28	X29	Y29	Z29	X30	Y30	Z30	X31	Y31	Z31	X32	Y32	Z32	X33	Y33	Z33	

36	32.542500000000	936.074595795661	959.873524221291	323.463044376176	730.776034283553	1006.202484495381	491.911071746053	884.176235085961	1433.880883701638	308.546442620926	1001.667182527679	1362.318572452466	458.643914506033	932.901690208841	1436.679233963305	639.615559854907	897.889977746805	1493.596371638181	458.649988597405	959.410804618645	933.666990723763	596.786533803919	961.316078096738	721.661619849938	572.726781184502	859.555056740023	627.312607770999	633.901411240814	924.848933064789	559.051155463468	557.826110441723	903.823355295325	462.110275429488	567.739289137414	1004.724105773060	764.088378436610	360.697310648282	936.935466307651	639.189966036862	293.999695050480	1029.898492731066	570.500609858313	358.728643150860	1039.758959297158	497.021972004416	365.119254768945	1012.974459293738	423.492826324738	355.698515701437	927.555295262471	309.051360732438	299.718874396523	978.922621926083	196.761891296991	367.554259810686	843.445898957874	388.405911763513	573.335331682061	739.062839964827	317.420786438134	633.676130291354	747.604683559790	211.754984838421	576.341753215102	568.254244278761	85.598843133033	542.913428601886	743.683055998029	103.237964519007	588.833634887070	643.704097461673	59.005507585558	621.015763051281	847.415314634830	36.456694360997	624.259144841890	851.283825735028	39.786374593764	399.980412932713	927.941108234535	37.076801189167	322.109012965652	1010.420549960579	97.458785032131	351.624725153525	1139.219001478140	44.061660176448	326.848456049688	774.705674343160	1094.605097405617	207.134557476230	780.699519471700	833.689957073569	204.837792784809	1037.696169993444	1110.884789310753	751.953724019047	1268.837300932793	1155.025024785634	665.034163095197	
37	32.555714285714	936.533230252000	960.589552067399	320.700808944109	731.029949053111	1006.735307586533	488.829168412821	885.297226446584	1434.690746672311	306.124638913667	1002.225383562579	1362.877945622033	456.538779020392	932.974417153903	1437.286111214936	637.300275135197	898.598423384090	1494.254399541730	456.281743331062	959.609411626006	934.294381531432	594.029901589192	963.631259371514	722.571000192933	570.701445946791	862.922202913409	627.476403265000	632.051246820775	929.627704535589	559.305075186004	556.773384240820	909.142053817571	461.019503895019	568.044286185014	1004.433662614501	763.710312594149	357.475102834114	934.999154287295	638.956936492579	292.230242927766	1027.583510694422	569.793345535648	356.775462753805	1036.960093202998	496.466994777927	363.881847250021	1009.641690636250	422.983895563240	354.730598344334	923.561959511036	309.031794033145	298.976373318148	973.775882162182	196.586751183987	367.291413314890	846.528622283888	388.366363454216	573.410218248018	739.968106018803	320.280501611102	633.299728278290	746.638260229282	213.917619189231	576.844810775344	564.245329981552	92.447874553000	543.386921918128	739.985015597853	103.883124920051	589.161097916690	638.723275902133	62.842234009365	621.268381222688	841.093762299728	36.399555137506	624.187992260652	844.800834418839	40.107031226224	399.954426047185	921.444169521282	37.201004093904	322.155069022424	1004.159031729018	97.394639243452	351.583478162951	1132.835031784979	43.268813092608	326.738429840079	777.873376012586	1094.823552993055	203.735555479035	788.951841056804	833.893789392766	201.109094939202	1031.429563178629	1108.813096544143	749.523522288967	1264.692869374144	1143.370160624224	663.796567792855	
38	32.568928571429	936.857258013235	961.214683797218	317.919798419189	731.194403656428	1007.205679919714	485.776494684537	886.374593837278	1435.500108067102	303.780249149585	1002.701580089612	1363.396492433283	454.523389613822	932.918583415837	1437.776984653440	635.077291537556	899.201735568329	1494.862782907873	454.013885522183	959.736241131398	934.886939398070	591.257380021377	966.261533755820	723.538120448233	568.612744331950	866.857672719048	627.574953829735	630.257298188935	935.046079796249	559.601272573793	555.714046980917	915.202417100897	459.997596030542	568.390510754794	1003.956809801934	763.235448824918	354.210843425779	932.903653425377	638.721052547286	290.366128236677	1025.077414931316	569.077852376074	354.736707858972	1033.960961291244	495.891996645371	362.461569459812	1006.111857621225	422.442865342968	353.590761042300	919.317950630278	308.955959703087	298.161720934029	968.505712745255	196.394141747333	366.940763876773	850.418013227618	388.354546367215	573.594439120240	741.692548486301	323.354299332982	633.040917633388	746.336231863117	216.330732841431	577.488510513928	560.857267951502	100.166820680764	544.051856373242	736.664710839285	104.618573146484	589.559772098780	634.109248883857	67.255138305679	621.637969614253	834.755473450239	36.289269686914	624.098389657584	838.252989966429	40.398603229311	399.916893368051	914.885073015097	37.290719424649	322.186364373560	997.824373509320	97.311715614524	351.517186961184	1126.374873730023	42.512350619770	326.639172562560	781.128702247148	1095.088017962602	200.168176365521	797.995904850799	834.289102119470	197.104560692801	1024.540972168859	1106.594203240946	747.043201949417	1259.904622196041	1130.130307343354	663.017771570377	
39	32.582142857143	937.042694101206	961.736141335181	315.128665043847	731.256507272525	1007.611288267438	482.773556005169	887.381065694366	1436.289781622714	301.524914109624	1003.089199259446	1363.856441199342	452.593116367522	932.747575825527	1438.140648612149	632.951363571151	899.695537768970	1495.406353610877	451.853955401096	959.763039464569	935.434769529869	588.494921814952	969.196940431175	724.579111279082	566.455303569779	871.404594121562	627.617738650491	628.540519485184	941.128762971660	559.971905096100	554.629079132480	922.054622187597	459.077937676154	568.728809326912	1003.304922671475	762.697529797662	350.981673973714	930.690299354819	638.495734600801	288.429700290183	1022.395476688092	568.356590395683	352.662325502814	1030.763036127526	495.294231758093	360.916859684448	1002.394809766749	421.867576795113	352.322101553662	914.856378824973	308.825407077088	297.279506241925	963.114807145231	196.180095433058	366.520504609549	855.175283265384	388.389920080581	573.847252395363	744.336370968933	326.658823176627	632.907363321841	746.762557648536	219.040092076519	578.259890485826	558.216031769846	108.888344754797	544.934557120329	733.770840963643	105.556432543411	590.060257718300	629.945380154463	72.383211497219	622.140280018023	828.393925392383	36.067579880361	623.992429930120	831.661446719277	40.642377733082	399.859786100008	908.284819500853	37.344980490849	322.189760031199	991.423009042449	97.222559587622	351.423514491213	1119.857132337349	41.841447381232	326.543495144536	784.441114375600	1095.395183391320	196.443131626795	807.790849967797	834.924325703845	192.828499369908	1017.034241360304	1104.242574296228	744.487821242174	1254.304910011052	1115.371890177722	662.738339760051	
40	32.595357142857	937.096018394854	962.142986493920	312.348047817430	731.202274439363	1007.949549782269	479.835347884958	888.292539157825	1437.040115541577	299.367165700175	1003.380571910146	1364.243058801118	450.744706116447	932.467284812933	1438.367419480840	630.927614370403	900.079936347447	1495.872190057849	449.805964810991	959.661841245015	935.930733965499	585.777369691539	972.417606756764	725.717093496418	564.233241560843	876.585961251834	627.626544249664	626.920708071264	947.875947524351	560.459152726298	553.502000522638	929.725896080716	458.302392184190	569.006870263187	1002.489689326660	762.112411346101	347.851459791703	928.367929300576	638.280208328610	286.453284937445	1019.533515475608	567.620515225382	350.600437091006	1027.352313171937	494.666382536893	359.314484080293	998.485793600056	421.255087799367	350.975909719853	910.198160504012	308.638210897112	296.345066990654	957.598497519287	195.937835677839	366.055547433017	860.831259222591	388.503593064863	574.117700079263	747.969590417088	330.212136960773	632.891657322748	747.963280894134	222.093737256496	579.129002361016	556.447000255095	118.719521720823	546.033265169991	731.349114789143	106.826321718573	590.677497946510	626.320331703004	78.364259459268	622.773941906962	822.008432556706	35.680102277312	623.874605882050	825.041978849146	40.818979638847	399.779366387470	901.658338421896	37.360789568913	322.156351447802	984.959038572364	97.134095002283	351.304732008994	1113.297686099450	41.288541266567	326.446173343770	787.789734191675	1095.733935886858	192.573882608216	818.295927245000	835.843542076995	188.294724577631	1008.926092870362	1101.781897508607	741.841604180945	1247.716931182056	1099.196463384243	662.980536361322	
41	32.608571428571	937.031660139871	962.427432312237	309.610278331734	731.018508921999	1008.218483827129	476.973397848128	889.092817270486	1437.731963474302	297.311476455278	1003.568543874371	1364.545693846053	448.977937185944	932.075697480102	1438.450604460162	629.011419365143	900.359702100808	1496.251016545990	447.869547365510	959.409207781765	936.370442064466	583.146149064661	975.891308704925	726.980482759302	561.961589121223	882.395192377267	627.636910107246	625.415786461183	955.255710615155	561.113804022211	552.323720700965	938.207406615952	457.721306596505	569.176654530505	1001.517287988163	761.478359894622	344.870523449050	925.921437358913	638.065489895627	284.472797314397	1016.472669939641	566.855093734141	348.593143500649	1023.703310532353	493.999393668753	357.717714173509	994.369130057869	420.603623417260	349.602733819353	905.352058261330	308.390877348695	295.380162163497	951.947954721028	195.660146875326	365.572523429259	867.376592763524	388.738201990260	574.351308909445	752.618704754708	334.031439092853	632.970515813852	749.960523266891	225.536131634045	580.050807307122	555.663709339255	129.715169551175	547.311231964039	729.440579655058	108.559619339554	591.403733072015	623.324269374193	85.311517845306	623.516564063495	815.613356123913	35.086825002214	623.753666749985	818.404486387768	40.912298854051	399.676244163420	895.014232488464	37.334978902103	322.082172973353	978.434946013763	97.048163732929	351.166810803938	1106.708500256390	40.868013018052	326.344710202192	791.163595503223	1096.086705898945	188.576538332965	829.466821505243	837.085694535492	183.527202868475	1000.248674656659	1099.246025784769	739.102132758332	1239.961204928275	1081.744264367229	663.744194469207	
42	32.621785714286	936.867650868199	962.587337221843	306.955796101706	730.694543353038	1008.418598854958	474.197979812146	889.777640446855	1438.348707398938	295.358566945901	1003.648803989604	1364.758559038889	447.296837233313	931.565392899609	1438.388807458594	627.208467568071	900.544754159598	1496.538907281658	446.040594964605	958.989001580621	936.752856681997	580.643674461679	979.571701202612	728.401033713348	559.666761605901	888.789093843897	627.698038784267	624.042012552724	963.200539264772	561.993324290621	551.097809563632	947.446516805488	457.392184428382	569.203946951093	1000.384794395313	760.782188791158	342.076926243778	923.323906356905	637.841246757671	282.522183761757	1013.187128774654	566.047000800422	346.674218323343	1019.786139663807	493.286291356219	356.177814418503	990.024664176757	419.914994316051	348.245754675756	900.318397467389	308.081392644071	294.408563591029	946.154878418604	195.342409939898	365.095369951620	874.757582796818	389.146083360882	574.499352967661	758.258124762216	338.130035949591	633.106493257909	752.750219843578	229.400795134534	580.969954213823	555.956709136846	141.851025519980	548.693889512255	728.084588276581	110.872431385819	592.208931013540	621.045490884002	93.287096239192	624.323519584799	809.251234544706	34.273573701646	623.644824481757	811.754014382181	40.913378354453	399.554716143920	888.356085564893	37.266482012575	321.968085786474	971.853160098192	96.963351924336	351.017703486174	1100.097571505944	40.578010783815	326.239051607119	794.562353569739	1096.432722547989	184.470066585220	841.252791325871	838.685046009837	178.559930868466	991.051182143595	1096.678619760646	736.282881243749	1230.863248804224	1063.195481080899	665.005833184422	
